<svg xmlns="http://www.w3.org/2000/svg" viewBox="0 0 249.4 49.3"><path fill="#F9A956" d="M0 31c0-10 4.3-19.2 14.6-19.8 5.7-.2 12.4 2.4 13.8 11.3l-10.6 2.6c-.5-3.1-1.2-4.9-3.2-4.8-1.9.1-3.2 2.7-3.2 10.2 0 7.5 1.2 9.9 3.2 9.8 2-.1 2.7-2.1 3.2-5.2l10.8 1.7c-1.7 7.3-6.5 12.1-14.1 12.5C4.4 49.8 0 41 0 31zm38.5-20l10.8-.6L59 46l-11.9.6-.5-4.5-5.4.3-.5 4.5-11.9.6L38.5 11zm6.9 22.7l-1.2-8.9-.3-3h-.1l-.3 3-1.2 9.1 3.1-.2zm13.7 5.2l8.6-4.5c1.1 2.4 2.5 2.9 3.8 2.8 1.1-.1 2.2-1.1 2.2-2.1 0-5-12.9-6.3-12.9-16.8 0-5 4.3-9.7 11.9-10.1 7.6-.4 11.3 2.4 13.5 6.3l-8.2 4c-.8-1.5-1.6-2.4-3.2-2.3-1.3.1-2.2 1.1-2.2 2.6 0 3.6 13.5 5.8 13.5 16.8 0 6.5-5.9 10.3-13.5 10.7-7.6.3-11.7-3.4-13.5-7.4zm29-1.5l8.6-4.5c1.1 2.4 2.5 2.9 3.8 2.8 1.1-.1 2.2-1.1 2.2-2.1 0-5-13-6.3-13-16.8 0-5 4.3-9.7 11.9-10.1S112.9 9.1 115 13l-8.1 3.9c-.8-1.5-1.6-2.4-3.2-2.3-1.3.1-2.2 1.1-2.2 2.6 0 3.6 13.5 5.8 13.5 16.8 0 6.5-5.9 10.3-13.5 10.7s-11.7-3.4-13.4-7.3zm30.5-30.6l20-1 .5 9-9.2.5v4.5l8.1-.4v8.5l-8.1.4v4.5l9.2-.5-.5 9.5-20 1v-36zm25-1.3l14.6-.8c6.3-.3 12.4 3.3 12.4 9.8 0 6-2.2 8.6-5.6 10.3l6.2 15.2-11.3.6-4.9-13.7h-.1v14l-11.3.6v-36zm16.7 10.6c0-3.2-2.2-3.9-5.4-3.7v8c3.2-.1 5.4-1.2 5.4-4.3zm12.8 5.9c0-11.5 5.3-19.3 14.8-19.8 9.6-.5 14.8 6.7 14.8 18.2s-5.3 19.3-14.9 19.8c-9.5.5-14.7-6.7-14.7-18.2zm18.3-1c0-7-.9-10-3.5-9.8-2.6.1-3.5 3.2-3.5 10.2 0 7 .9 10 3.5 9.8 2.7-.1 3.5-3.2 3.5-10.2zm15-18.8l11.3-.6v27l8.6-.5-1.1 9.1-18.9 1v-36zM228.9 1l20-1 .5 9-9.2.5V14l8.1-.4V22l-8.1.4V27l9.2-.5-.5 9.5-20 1V1z"/></svg>