<?xml version="1.0" encoding="utf-8"?>
<!-- Generator: Adobe Illustrator 21.0.2, SVG Export Plug-In . SVG Version: 6.00 Build 0)  -->
<svg version="1.1" id="Ebene_1" xmlns="http://www.w3.org/2000/svg" xmlns:xlink="http://www.w3.org/1999/xlink" x="0px" y="0px"
	 width="88px" height="88px" viewBox="0 0 88 88" style="enable-background:new 0 0 88 88;" xml:space="preserve">
<style type="text/css">
	.st0{fill:#FCFCFC;}
</style>
<g id="Ebene_1_1_">
</g>
<g>
	<g>
		<g>
			<path class="st0" d="M50.1,25.9l-4,3.6v0.3c3.4,3.7,5.4,8.7,5.4,14.2s-2.1,10.5-5.4,14.2v0.3l4,3.6c4.2-4.7,6.8-11,6.8-18.1
				S54.3,30.6,50.1,25.9z"/>
			<polygon class="st0" points="8.1,33.2 8.1,44 8.1,54.8 19,54.8 35.2,71.1 35.2,16.9 19,33.2 			"/>
			<path class="st0" d="M58.7,18.4L54.6,22c4.8,6,7.7,13.7,7.7,22s-2.9,16-7.7,22l4,3.6c5.7-7,9.1-15.9,9.1-25.6
				C67.8,34.3,64.4,25.4,58.7,18.4z"/>
			<path class="st0" d="M67,11l-4.1,3.6c6.5,8,10.3,18.2,10.3,29.4s-3.9,21.4-10.3,29.4L67,77c7.3-9,11.7-20.5,11.7-33
				S74.2,20,67,11z"/>
		</g>
	</g>
</g>
</svg>
