<svg id="Layer_1" data-name="Layer 1" xmlns="http://www.w3.org/2000/svg" xmlns:xlink="http://www.w3.org/1999/xlink" viewBox="0 0 676.97 53.28"><defs><style>.cls-1{fill:none;}.cls-2{fill:#0179c1;}.cls-3{clip-path:url(#clip-path);}</style><clipPath id="clip-path" transform="translate(0 -0.72)"><rect class="cls-1" y="0.72" width="676.97" height="53.22"/></clipPath></defs><title>chase_logo_2</title><path d="M306.67,22l0.41-3.31c0.33-2.68,2.12-4.58,7.22-4.58h0.22c0.3,0,.41.11,0.37,0.45l-0.07.78a0.45,0.45,0,0,1-.52.45h-0.15c-3.68,0-4.91,1.27-5.14,3.09L308.61,22h4.32c0.33,0,.48.11,0.45,0.41l-0.11.75a0.42,0.42,0,0,1-.48.45h-4.32l-3,23.93A0.45,0.45,0,0,1,305,48h-1.08c-0.3,0-.41-0.15-0.37-0.49l3-23.93h-2.42a0.35,0.35,0,0,1-.41-0.45l0.08-.6a0.42,0.42,0,0,1,.48-0.45l2-.11h0.37" transform="translate(0 -0.72)"/><path d="M319.7,26.27c0.33-2.72,2.16-4.61,7.26-4.61,4.47,0,6.25,1.6,6.25,3.94a4.68,4.68,0,0,1,0,.67L331.95,36c-0.33,2.68-2.12,4.58-7.26,4.58-4.47,0-6.25-1.6-6.25-3.94a3.83,3.83,0,0,1,0-.63l1.23-9.75m11.54,0.11a3,3,0,0,0,0-.44c0-1.6-1.19-2.64-4.47-2.64-3.65,0-5,1.26-5.17,3.09l-1.19,9.49a2.36,2.36,0,0,0,0,.48c0,1.64,1.12,2.6,4.47,2.6,3.65,0,4.95-1.23,5.17-3.09Z" transform="translate(0 -0.72)"/><path d="M351.45,22.13l-0.11.93a0.45,0.45,0,0,1-.52.41A12.29,12.29,0,0,0,344.27,26l-1.71,13.81a0.42,0.42,0,0,1-.48.45H341a0.34,0.34,0,0,1-.37-0.45l2.16-17.45a0.42,0.42,0,0,1,.48-0.45h0.93a0.36,0.36,0,0,1,.41.45l-0.15,2A11.28,11.28,0,0,1,351,21.69a0.36,0.36,0,0,1,.41.45" transform="translate(0 -0.72)"/><path d="M368.48,47.67a0.64,0.64,0,0,1-.72-0.72V7.61a0.64,0.64,0,0,1,.72-0.72h10.13c9.65,0,12.53,3.54,12.53,8.22v4.08c0,3.36-1.5,5.88-5.7,7.14,5.1,1,7.26,3.66,7.26,7.44v5.52c0,4.74-2.88,8.4-12.53,8.4H368.48m2.46-38.08V25.3h8.33c6.42,0,8.7-2.52,8.7-6.18v-3.6c0-3.66-2.34-5.94-9.35-5.94h-7.67Zm0,18.29V45h9.23c7.08,0,9.35-2.46,9.35-6.12V33.94c0-3.54-2.28-6.06-9.35-6.06h-9.23Z" transform="translate(0 -0.72)"/><path d="M410.57,39.22c0,3.66,2.34,6.18,9.35,6.18s9.36-2.52,9.36-6.18V7.61A0.63,0.63,0,0,1,430,6.9h1.8a0.59,0.59,0,0,1,.66.72V39.7c0,4.68-2.88,8.45-12.53,8.45s-12.53-3.78-12.53-8.45V7.61a0.63,0.63,0,0,1,.72-0.72h1.8a0.59,0.59,0,0,1,.66.72v31.6" transform="translate(0 -0.72)"/><path d="M469.15,15.23c0-3.6-2-6.12-8.93-6.12s-8.93,2.52-8.93,6.12v2.22a5.32,5.32,0,0,0,3.78,5.1l11.51,4.38c3,1.14,6,3.42,6,7.5V39.7c0,4.68-2.88,8.45-12.41,8.45s-12.47-3.78-12.47-8.45V36.58a0.66,0.66,0,0,1,.72-0.78h1.74a0.66,0.66,0,0,1,.72.78v2.76c0,3.6,2.22,6.12,9.24,6.12s9.35-2.52,9.35-6.12V35.08c0-3.24-2.64-4.68-5-5.58l-11.15-4.32a7.68,7.68,0,0,1-5.16-7.08V14.87c0-4.68,2.64-8.46,12.05-8.46s12.05,3.78,12.05,8.46v2.94a0.61,0.61,0,0,1-.72.72h-1.74a0.6,0.6,0,0,1-.66-0.72V15.23" transform="translate(0 -0.72)"/><path d="M491.81,47a0.6,0.6,0,0,1-.66.72h-1.8a0.64,0.64,0,0,1-.72-0.72V7.61a0.64,0.64,0,0,1,.72-0.72h1.8a0.6,0.6,0,0,1,.66.72V47" transform="translate(0 -0.72)"/><path d="M534.8,47a0.6,0.6,0,0,1-.66.72h-1.62a0.64,0.64,0,0,1-.66-0.36L514.71,16.79a34.85,34.85,0,0,1-1.92-3.6V47a0.6,0.6,0,0,1-.66.72h-1.62A0.64,0.64,0,0,1,509.8,47V7.61a0.64,0.64,0,0,1,.72-0.72h1.62a0.66,0.66,0,0,1,.6.3L530.06,38c0.54,1,1.74,3.42,1.74,3.42V7.61a0.64,0.64,0,0,1,.72-0.72h1.62a0.59,0.59,0,0,1,.66.72V47" transform="translate(0 -0.72)"/><path d="M552.73,47.67a0.62,0.62,0,0,1-.66-0.72V7.61a0.64,0.64,0,0,1,.72-0.72h20.45a0.61,0.61,0,0,1,.72.72V8.93a0.61,0.61,0,0,1-.72.72h-18V24.88h16.91a0.61,0.61,0,0,1,.72.72v1.26a0.64,0.64,0,0,1-.72.72H555.25V44.91H574a0.61,0.61,0,0,1,.72.72V47a0.61,0.61,0,0,1-.72.72H552.73" transform="translate(0 -0.72)"/><path d="M609.48,15.23c0-3.6-2-6.12-8.93-6.12s-8.94,2.52-8.94,6.12v2.22a5.32,5.32,0,0,0,3.78,5.1l11.51,4.38c3,1.14,6,3.42,6,7.5V39.7c0,4.68-2.88,8.45-12.41,8.45S588,44.37,588,39.7V36.58a0.66,0.66,0,0,1,.72-0.78h1.74a0.66,0.66,0,0,1,.72.78v2.76c0,3.6,2.22,6.12,9.24,6.12s9.35-2.52,9.35-6.12V35.08c0-3.24-2.64-4.68-5-5.58l-11.15-4.32a7.68,7.68,0,0,1-5.16-7.08V14.87c0-4.68,2.64-8.46,12.05-8.46s12.05,3.78,12.05,8.46v2.94a0.61,0.61,0,0,1-.72.72h-1.74a0.6,0.6,0,0,1-.66-0.72V15.23" transform="translate(0 -0.72)"/><path d="M647.27,15.23c0-3.6-2-6.12-8.93-6.12s-8.93,2.52-8.93,6.12v2.22a5.32,5.32,0,0,0,3.78,5.1l11.51,4.38c3,1.14,6,3.42,6,7.5V39.7c0,4.68-2.88,8.45-12.41,8.45S625.8,44.37,625.8,39.7V36.58a0.66,0.66,0,0,1,.72-0.78h1.74a0.66,0.66,0,0,1,.72.78v2.76c0,3.6,2.22,6.12,9.23,6.12s9.35-2.52,9.35-6.12V35.08c0-3.24-2.64-4.68-5-5.58l-11.15-4.32a7.68,7.68,0,0,1-5.16-7.08V14.87c0-4.68,2.64-8.46,12.05-8.46s12.05,3.78,12.05,8.46v2.94a0.61,0.61,0,0,1-.72.72h-1.74a0.6,0.6,0,0,1-.66-0.72V15.23" transform="translate(0 -0.72)"/><path class="cls-2" d="M252.17,0.72a1.88,1.88,0,0,0-1.88,1.89V15.79h34.83L269.25,0.72H252.17" transform="translate(0 -0.72)"/><g class="cls-3"><path class="cls-2" d="M286.39,19.79a1.87,1.87,0,0,0-1.89-1.89H271.34V52.73l15.06-15.85V19.79" transform="translate(0 -0.72)"/><path class="cls-2" d="M267.33,54a1.89,1.89,0,0,0,1.89-1.89V38.94H234.38L250.24,54h17.09" transform="translate(0 -0.72)"/></g><path class="cls-2" d="M233.1,34.95A1.88,1.88,0,0,0,235,36.82h13.18V2L233.12,17.86l0,17.09" transform="translate(0 -0.72)"/><polyline points="73.69 6.36 73.69 22.45 51.28 22.45 51.28 6.36 43.13 6.36 43.13 46.92 51.28 46.92 51.28 29.49 73.69 29.49 73.69 46.92 81.87 46.92 81.87 6.36 73.69 6.36"/><polyline points="182.27 6.36 182.27 46.9 218.08 46.9 213.56 39.77 190.46 39.77 190.46 29.49 212.83 29.49 212.83 22.61 190.46 22.61 190.46 13.33 213.52 13.33 217.97 6.36 182.27 6.36"/><path d="M12.78,7.08C4.29,7.08,0,12.23,0,19.76V34.89c0,8.69,5.53,12.75,12.73,12.75H38.34L33.6,40.22H14.32c-4.1,0-5.88-1.48-5.88-6.07V20.42c0-4.44,1.51-6.17,6-6.17H33.8l4.56-7.18H12.78" transform="translate(0 -0.72)"/><path d="M146.46,7.07c-4.91,0-9.93,3-9.93,10.53v1.94c0,7.9,4.84,10.91,9.67,10.94h17c1.77,0,3.2.29,3.2,3.26V37.2c0,2.68-1.38,3.29-3.25,3.29H140.79l-4.58,7.14h27.45c6.62,0,11.11-3.29,11.11-10.9V33.94c0-7.35-4.18-10.83-10.65-10.83H147.9c-1.8,0-3-.48-3-3.15v-2.8c0-2.27.87-3.1,3-3.1h21.26l4.45-7H146.46" transform="translate(0 -0.72)"/><path d="M105.59,7.08L86.35,47.63h9.09l3.75-8.36h20.9l3.73,8.36h9.13L113.68,7.08h-8.09m4,8.42L117,32.35H102.27Z" transform="translate(0 -0.72)"/><path d="M665.32,15.05a2.37,2.37,0,0,1-.91,2,4,4,0,0,1-2.51.72,6,6,0,0,1-2.62-.5V15.79a7.23,7.23,0,0,0,1.37.48,5.71,5.71,0,0,0,1.35.17,2.15,2.15,0,0,0,1.35-.35,1.14,1.14,0,0,0,.43-0.93,1.16,1.16,0,0,0-.4-0.9,5.9,5.9,0,0,0-1.65-.87,4.37,4.37,0,0,1-1.82-1.19,2.52,2.52,0,0,1-.53-1.61,2.26,2.26,0,0,1,.84-1.86,3.47,3.47,0,0,1,2.25-.68,6.64,6.64,0,0,1,2.69.59l-0.49,1.26a5.88,5.88,0,0,0-2.24-.53,1.72,1.72,0,0,0-1.13.32,1.08,1.08,0,0,0-.39.86,1.2,1.2,0,0,0,.15.63,1.57,1.57,0,0,0,.51.49,8.27,8.27,0,0,0,1.27.61,7.08,7.08,0,0,1,1.52.81,2.35,2.35,0,0,1,.71.84,2.52,2.52,0,0,1,.22,1.11" transform="translate(0 -0.72)"/><path d="M671.35,17.61l-2.73-7.87h-0.05c0.07,1.17.11,2.26,0.11,3.28v4.58h-1.4V8.19h2.17l2.61,7.49h0l2.69-7.49H677v9.42h-1.48V13c0-.47,0-1.08,0-1.83s0-1.21.06-1.37h-0.05l-2.83,7.85h-1.36" transform="translate(0 -0.72)"/></svg>