<svg id="Layer_1" data-name="Layer 1" xmlns="http://www.w3.org/2000/svg" xmlns:xlink="http://www.w3.org/1999/xlink" viewBox="0 0 363.62 116.47"><defs><style>.cls-1{fill:none;}.cls-2{fill:#0b79bf;}.cls-3{clip-path:url(#clip-path);}</style><clipPath id="clip-path" transform="translate(0 -0.53)"><rect class="cls-1" x="0.06" y="0.53" width="363.56" height="116.47"/></clipPath></defs><title>chase_logo</title><path class="cls-2" d="M250.62,0.53a1.87,1.87,0,0,0-1.87,1.87V15.46h34.52L267.55,0.53H250.62" transform="translate(0 -0.53)"/><path class="cls-2" d="M284.54,19.42a1.86,1.86,0,0,0-1.87-1.87H269.62V52.07l14.92-15.71V19.42" transform="translate(0 -0.53)"/><path class="cls-2" d="M265.64,53.33a1.88,1.88,0,0,0,1.87-1.87V38.4H233l15.71,14.92h16.94" transform="translate(0 -0.53)"/><path class="cls-2" d="M231.73,34.45a1.87,1.87,0,0,0,1.87,1.86h13.06V1.79L231.74,17.51l0,16.94" transform="translate(0 -0.53)"/><polyline points="73.73 6.3 73.73 22.25 51.52 22.25 51.52 6.3 43.44 6.3 43.44 46.5 51.52 46.5 51.52 29.23 73.73 29.23 73.73 46.5 81.84 46.5 81.84 6.3 73.73 6.3"/><polyline points="181.34 6.3 181.34 46.49 216.83 46.49 212.36 39.41 189.46 39.41 189.46 29.23 211.63 29.23 211.63 22.41 189.46 22.41 189.46 13.21 212.31 13.21 216.73 6.3 181.34 6.3"/><path d="M13.37,6.82C5,6.82.69,11.94,0.69,19.39v15C0.69,43,6.17,47,13.32,47H38.7L34,39.67H14.89c-4.06,0-5.83-1.46-5.83-6V20.05c0-4.4,1.49-6.11,5.94-6.11h19.2l4.51-7.12H13.37" transform="translate(0 -0.53)"/><path d="M145.86,6.82C141,6.82,136,9.74,136,17.26v1.93C136,27,140.81,30,145.6,30h16.83c1.76,0,3.17.29,3.17,3.24v3.42c0,2.65-1.37,3.26-3.22,3.26H140.24L135.69,47H162.9c6.56,0,11-3.26,11-10.8V33.45c0-7.28-4.14-10.74-10.56-10.74H147.28c-1.78,0-3-.47-3-3.12V16.81c0-2.25.86-3.07,2.94-3.07h21.07l4.41-6.92H145.86" transform="translate(0 -0.53)"/><g class="cls-3"><path d="M105.35,6.83L86.28,47h9L99,38.73h20.71L123.41,47h9L113.36,6.83h-8m4,8.35,7.33,16.7H102.05Z" transform="translate(0 -0.53)"/><path d="M3.23,90.17l0.42-3.41C4,84,5.84,82,11.1,82h0.23c0.31,0,.42.11,0.38,0.46l-0.08.81a0.47,0.47,0,0,1-.54.46H10.94c-3.8,0-5.07,1.31-5.3,3.19L5.23,90.17H9.68c0.35,0,.5.12,0.46,0.42L10,91.36a0.43,0.43,0,0,1-.5.46H5.07L2,116.5a0.46,0.46,0,0,1-.5.5H0.39C0.08,117,0,116.85,0,116.5L3.08,91.83H0.58a0.36,0.36,0,0,1-.42-0.46l0.08-.61a0.43,0.43,0,0,1,.5-0.46l2.11-.12H3.23" transform="translate(0 -0.53)"/></g><path d="M16.67,94.55c0.34-2.8,2.22-4.76,7.48-4.76,4.6,0,6.45,1.65,6.45,4.07a4.85,4.85,0,0,1,0,.69L29.29,104.6c-0.34,2.76-2.19,4.72-7.48,4.72-4.61,0-6.45-1.65-6.45-4.07a4,4,0,0,1,0-.65l1.27-10.05m11.9,0.11a3.13,3.13,0,0,0,0-.46c0-1.65-1.23-2.73-4.6-2.73-3.76,0-5.1,1.3-5.34,3.18l-1.23,9.79a2.37,2.37,0,0,0,0,.5c0,1.69,1.15,2.69,4.61,2.69,3.76,0,5.1-1.27,5.33-3.18Z" transform="translate(0 -0.53)"/><path d="M49.4,90.29l-0.11,1a0.46,0.46,0,0,1-.54.42A12.68,12.68,0,0,0,42,94.32l-1.77,14.24a0.43,0.43,0,0,1-.5.46H38.62a0.35,0.35,0,0,1-.38-0.46l2.23-18A0.43,0.43,0,0,1,41,90.1h1a0.37,0.37,0,0,1,.42.46l-0.16,2.07c1.23-1,3.88-2.8,6.79-2.8a0.37,0.37,0,0,1,.42.46" transform="translate(0 -0.53)"/><path d="M65.3,109a0.63,0.63,0,0,1-.71-0.71V69.38a0.63,0.63,0,0,1,.71-0.71h10c9.55,0,12.4,3.5,12.4,8.13v4c0,3.32-1.48,5.82-5.64,7.06,5,1,7.18,3.62,7.18,7.36v5.46c0,4.69-2.85,8.31-12.4,8.31H65.3m2.43-37.68V86.89H76c6.35,0,8.6-2.49,8.6-6.11V77.22c0-3.62-2.32-5.87-9.26-5.87H67.73Zm0,18.1v16.91h9.14c7,0,9.26-2.43,9.26-6.05V95.43c0-3.5-2.25-6-9.26-6H67.73Z" transform="translate(0 -0.53)"/><path d="M106.94,100.65c0,3.62,2.31,6.11,9.25,6.11s9.26-2.49,9.26-6.11V69.38a0.63,0.63,0,0,1,.71-0.71h1.78a0.59,0.59,0,0,1,.65.71v31.74c0,4.63-2.85,8.37-12.4,8.37s-12.4-3.74-12.4-8.37V69.38a0.63,0.63,0,0,1,.71-0.71h1.78a0.59,0.59,0,0,1,.65.71v31.27" transform="translate(0 -0.53)"/><path d="M164.9,76.92c0-3.56-2-6.05-8.84-6.05s-8.84,2.49-8.84,6.05v2.19a5.26,5.26,0,0,0,3.74,5l11.39,4.33c3,1.13,5.93,3.38,5.93,7.42v5.22c0,4.63-2.85,8.37-12.28,8.37s-12.34-3.74-12.34-8.37V98a0.65,0.65,0,0,1,.71-0.77h1.72a0.65,0.65,0,0,1,.71.77v2.73c0,3.56,2.2,6.05,9.14,6.05s9.26-2.49,9.26-6.05V96.56c0-3.2-2.61-4.63-4.92-5.52l-11-4.27a7.59,7.59,0,0,1-5.1-7v-3.2c0-4.63,2.61-8.37,11.93-8.37S168,71.93,168,76.56v2.9a0.61,0.61,0,0,1-.71.71h-1.72a0.59,0.59,0,0,1-.65-0.71V76.92" transform="translate(0 -0.53)"/><path d="M187.32,108.31a0.59,0.59,0,0,1-.65.71h-1.78a0.63,0.63,0,0,1-.71-0.71V69.38a0.63,0.63,0,0,1,.71-0.71h1.78a0.59,0.59,0,0,1,.65.71v38.92" transform="translate(0 -0.53)"/><path d="M229.86,108.31a0.59,0.59,0,0,1-.65.71h-1.6a0.63,0.63,0,0,1-.65-0.36l-17-30.2a34.48,34.48,0,0,1-1.9-3.56v33.4a0.59,0.59,0,0,1-.65.71h-1.6a0.63,0.63,0,0,1-.71-0.71V69.38a0.63,0.63,0,0,1,.71-0.71h1.6a0.65,0.65,0,0,1,.59.3l17.15,30.44c0.53,0.95,1.72,3.38,1.72,3.38V69.38a0.63,0.63,0,0,1,.71-0.71h1.6a0.59,0.59,0,0,1,.65.71v38.92" transform="translate(0 -0.53)"/><path d="M247.6,109a0.61,0.61,0,0,1-.65-0.71V69.38a0.63,0.63,0,0,1,.71-0.71h20.23a0.61,0.61,0,0,1,.71.71v1.31a0.61,0.61,0,0,1-.71.71H250.1V86.47h16.73a0.61,0.61,0,0,1,.71.71v1.25a0.63,0.63,0,0,1-.71.71H250.1v17.15h18.51a0.61,0.61,0,0,1,.71.71v1.31a0.61,0.61,0,0,1-.71.71h-21" transform="translate(0 -0.53)"/><path d="M303.74,76.92c0-3.56-2-6.05-8.84-6.05s-8.84,2.49-8.84,6.05v2.19a5.26,5.26,0,0,0,3.74,5l11.39,4.33c3,1.13,5.93,3.38,5.93,7.42v5.22c0,4.63-2.85,8.37-12.28,8.37s-12.34-3.74-12.34-8.37V98a0.65,0.65,0,0,1,.71-0.77h1.72a0.65,0.65,0,0,1,.71.77v2.73c0,3.56,2.2,6.05,9.14,6.05s9.26-2.49,9.26-6.05V96.56c0-3.2-2.61-4.63-4.92-5.52l-11-4.27a7.6,7.6,0,0,1-5.1-7v-3.2c0-4.63,2.61-8.37,11.93-8.37s11.92,3.74,11.92,8.37v2.9a0.61,0.61,0,0,1-.71.71H304.4a0.59,0.59,0,0,1-.65-0.71V76.92" transform="translate(0 -0.53)"/><path d="M341.14,76.92c0-3.56-2-6.05-8.84-6.05s-8.84,2.49-8.84,6.05v2.19a5.26,5.26,0,0,0,3.74,5l11.39,4.33c3,1.13,5.93,3.38,5.93,7.42v5.22c0,4.63-2.85,8.37-12.28,8.37s-12.34-3.74-12.34-8.37V98a0.65,0.65,0,0,1,.71-0.77h1.72A0.65,0.65,0,0,1,323,98v2.73c0,3.56,2.2,6.05,9.14,6.05s9.26-2.49,9.26-6.05V96.56c0-3.2-2.61-4.63-4.92-5.52l-11-4.27a7.59,7.59,0,0,1-5.1-7v-3.2c0-4.63,2.61-8.37,11.93-8.37s11.93,3.74,11.93,8.37v2.9a0.61,0.61,0,0,1-.71.71h-1.72a0.59,0.59,0,0,1-.65-0.71V76.92" transform="translate(0 -0.53)"/><path d="M354.08,73.43a4.72,4.72,0,0,1,.64-2.38,4.65,4.65,0,0,1,1.75-1.75,4.78,4.78,0,0,1,4.77,0A4.65,4.65,0,0,1,363,71a4.78,4.78,0,1,1-8.91,2.39m0.78,0a4,4,0,0,0,6,3.45,4,4,0,0,0,1.46-1.46A4,4,0,0,0,356.87,70a4,4,0,0,0-1.46,1.45A3.9,3.9,0,0,0,354.86,73.43Zm5.93-1.13a1.46,1.46,0,0,1-1,1.48l1.5,2.52H360l-1.22-2.19h-0.57V76.3H357V70.57h1.66a2.49,2.49,0,0,1,1.62.43A1.6,1.6,0,0,1,360.79,72.31Zm-2.6.88h0.44a1,1,0,0,0,.71-0.22,0.82,0.82,0,0,0,.24-0.63,0.77,0.77,0,0,0-.23-0.64,1.2,1.2,0,0,0-.73-0.18h-0.43v1.68Z" transform="translate(0 -0.53)"/></svg>